<?xml version="1.0" standalone="no"?>
<!DOCTYPE svg PUBLIC "-//W3C//DTD SVG 20010904//EN"
 "http://www.w3.org/TR/2001/REC-SVG-20010904/DTD/svg10.dtd">
<svg version="1.0" xmlns="http://www.w3.org/2000/svg"
 width="260.000000pt" height="260.000000pt" viewBox="0 0 260.000000 260.000000"
 preserveAspectRatio="xMidYMid meet">
<metadata>
Created by potrace 1.11, written by Peter Selinger 2001-2013
</metadata>
<g transform="translate(0.000000,260.000000) scale(0.100000,-0.100000)"
fill="#000000" stroke="none">
<path d="M692 2584 c-18 -9 -43 -31 -55 -48 -21 -29 -22 -42 -22 -198 0 -153
2 -169 21 -194 35 -48 69 -67 117 -67 59 0 107 28 133 79 18 36 20 57 19 193
-2 134 -5 156 -22 179 -48 65 -128 88 -191 56z"/>
<path d="M1775 2581 c-72 -44 -81 -75 -80 -252 1 -126 4 -150 21 -179 47 -81
153 -98 223 -36 43 38 51 75 51 226 0 172 -12 204 -87 244 -42 21 -91 20 -128
-3z"/>
<path d="M293 2375 c-129 -40 -212 -129 -247 -265 -17 -67 -14 -1788 3 -1850
27 -98 102 -183 201 -229 l55 -26 995 0 995 0 56 26 c108 51 180 139 202 248
9 42 12 297 11 937 -1 871 -1 880 -22 937 -53 147 -187 237 -354 237 l-68 0 0
-32 c-2 -219 -13 -263 -88 -335 -136 -132 -367 -85 -442 90 -18 41 -22 72 -23
164 l-2 113 -265 0 -265 0 -2 -115 c-1 -92 -6 -124 -23 -162 -93 -210 -385
-224 -494 -23 -28 52 -35 98 -36 253 l0 47 -72 -1 c-40 0 -92 -6 -115 -14z
m1992 -1322 c-1 -603 -3 -681 -17 -708 -19 -36 -53 -67 -90 -83 -19 -8 -265
-10 -891 -9 l-864 2 -36 28 c-75 57 -71 13 -72 770 l-1 677 986 0 985 0 0
-677z"/>
<path d="M566 1511 c-5 -10 0 -240 5 -245 7 -8 234 -10 245 -3 6 3 10 61 10
129 l-1 123 -128 1 c-70 1 -129 -2 -131 -5z"/>
<path d="M970 1389 l0 -129 30 -1 c17 0 62 0 100 0 39 0 84 0 100 0 l31 1 -3
128 -3 127 -127 2 -128 1 0 -129z"/>
<path d="M1370 1386 l0 -131 92 2 c51 1 110 2 131 3 l37 0 0 129 0 128 -130 0
-130 0 0 -131z"/>
<path d="M1777 1511 c-2 -3 -3 -62 -3 -130 l1 -124 38 1 c20 0 79 1 130 1 l92
1 -2 122 c-1 68 -2 126 -2 129 -1 9 -250 9 -254 0z"/>
<path d="M569 1110 c-1 -3 -2 -61 -3 -130 l-1 -125 120 1 c66 1 125 2 131 3 7
1 10 45 10 128 l-1 127 -128 1 c-70 0 -127 -2 -128 -5z"/>
<path d="M970 985 l0 -131 128 1 127 0 0 130 0 129 -127 1 -128 1 0 -131z"/>
<path d="M1374 1111 c-7 -8 -4 -251 4 -252 4 -1 62 -2 130 -3 l122 -2 0 131 0
130 -126 0 c-69 0 -128 -2 -130 -4z"/>
<path d="M1782 1110 c-4 -3 -8 -61 -7 -130 l0 -124 128 -1 c70 -1 128 2 128 5
4 18 3 250 -1 251 -18 4 -242 4 -248 -1z"/>
<path d="M572 705 c-3 -5 -6 -65 -6 -132 l-1 -122 130 0 131 0 0 129 0 129
-124 3 c-73 2 -126 -1 -130 -7z"/>
<path d="M1432 712 l-63 -3 2 -129 1 -129 129 0 129 0 0 129 c0 128 0 130 -22
131 -13 0 -43 1 -68 2 -25 1 -73 1 -108 -1z"/>
<path d="M1793 710 c-16 -4 -18 -18 -18 -130 l0 -125 128 -2 c115 -3 127 -1
128 15 1 9 2 68 2 129 l2 113 -65 1 c-36 0 -86 1 -112 2 -26 1 -55 0 -65 -3z"/>
<path d="M970 580 l0 -129 130 0 130 1 0 129 0 129 -130 0 -130 0 0 -130z"/>
</g>
</svg>
